<svg width="22" height="21" viewBox="0 0 22 21" fill="none" xmlns="http://www.w3.org/2000/svg">
    <path d="M7.0961 0.407906C6.7691 0.0710916 6.23097 0.0631389 5.89415 0.390143C5.55734 0.717148 5.54939 1.25528 5.87639 1.59209L7.0961 0.407906ZM11.5718 6.2381L12.1816 6.83019C12.5018 6.50039 12.5018 5.9758 12.1816 5.646L11.5718 6.2381ZM5.87639 10.8841C5.54939 11.2209 5.55734 11.759 5.89415 12.086C6.23097 12.4131 6.7691 12.4051 7.0961 12.0683L5.87639 10.8841ZM1.09559 5.38807C0.626146 5.38807 0.245587 5.76862 0.245586 6.23807C0.245585 6.70751 0.626142 7.08807 1.09558 7.08807L1.09559 5.38807ZM5.87639 1.59209L10.9619 6.83019L12.1816 5.646L7.0961 0.407906L5.87639 1.59209ZM10.9619 5.646L5.87639 10.8841L7.0961 12.0683L12.1816 6.83019L10.9619 5.646ZM11.5718 5.38809L1.09559 5.38807L1.09558 7.08807L11.5718 7.0881L11.5718 5.38809Z" fill="#2170FF"/>
    <path d="M15.2958 20.5296C15.6239 20.8653 16.1621 20.8714 16.4978 20.5433C16.8335 20.2151 16.8396 19.677 16.5115 19.3413L15.2958 20.5296ZM10.8177 14.7324L10.2059 14.1423C9.88677 14.4732 9.88853 14.9979 10.2099 15.3266L10.8177 14.7324ZM16.5154 10.0493C16.8413 9.71141 16.8316 9.17331 16.4937 8.84742C16.1558 8.52153 15.6177 8.53126 15.2918 8.86915L16.5154 10.0493ZM21 15.5824C21.4694 15.5824 21.85 15.2019 21.85 14.7324C21.85 14.263 21.4694 13.8824 21 13.8824L21 15.5824ZM16.5115 19.3413L11.4255 14.1383L10.2099 15.3266L15.2958 20.5296L16.5115 19.3413ZM11.4295 15.3225L16.5154 10.0493L15.2918 8.86915L10.2059 14.1423L11.4295 15.3225ZM10.8177 15.5824C10.8252 15.5824 10.8328 15.5824 10.8403 15.5824C10.8479 15.5824 10.8554 15.5824 10.8629 15.5824C10.8704 15.5824 10.878 15.5824 10.8855 15.5824C10.893 15.5824 10.9005 15.5824 10.908 15.5824C10.9155 15.5824 10.923 15.5824 10.9305 15.5824C10.938 15.5824 10.9455 15.5824 10.953 15.5824C10.9604 15.5824 10.9679 15.5824 10.9754 15.5824C10.9829 15.5824 10.9903 15.5824 10.9978 15.5824C11.0053 15.5824 11.0127 15.5824 11.0202 15.5824C11.0276 15.5824 11.0351 15.5824 11.0425 15.5824C11.0499 15.5824 11.0574 15.5824 11.0648 15.5824C11.0722 15.5824 11.0797 15.5824 11.0871 15.5824C11.0945 15.5824 11.1019 15.5824 11.1093 15.5824C11.1167 15.5824 11.1241 15.5824 11.1315 15.5824C11.1389 15.5824 11.1463 15.5824 11.1537 15.5824C11.1611 15.5824 11.1685 15.5824 11.1759 15.5824C11.1833 15.5824 11.1906 15.5824 11.198 15.5824C11.2054 15.5824 11.2127 15.5824 11.2201 15.5824C11.2275 15.5824 11.2348 15.5824 11.2422 15.5824C11.2495 15.5824 11.2569 15.5824 11.2642 15.5824C11.2715 15.5824 11.2789 15.5824 11.2862 15.5824C11.2935 15.5824 11.3009 15.5824 11.3082 15.5824C11.3155 15.5824 11.3228 15.5824 11.3301 15.5824C11.3374 15.5824 11.3447 15.5824 11.352 15.5824C11.3593 15.5824 11.3666 15.5824 11.3739 15.5824C11.3812 15.5824 11.3885 15.5824 11.3958 15.5824C11.4031 15.5824 11.4103 15.5824 11.4176 15.5824C11.4249 15.5824 11.4322 15.5824 11.4394 15.5824C11.4467 15.5824 11.4539 15.5824 11.4612 15.5824C11.4684 15.5824 11.4757 15.5824 11.4829 15.5824C11.4902 15.5824 11.4974 15.5824 11.5046 15.5824C11.5119 15.5824 11.5191 15.5824 11.5263 15.5824C11.5336 15.5824 11.5408 15.5824 11.548 15.5824C11.5552 15.5824 11.5624 15.5824 11.5696 15.5824C11.5768 15.5824 11.584 15.5824 11.5912 15.5824C11.5984 15.5824 11.6056 15.5824 11.6128 15.5824C11.62 15.5824 11.6272 15.5824 11.6343 15.5824C11.6415 15.5824 11.6487 15.5824 11.6559 15.5824C11.663 15.5824 11.6702 15.5824 11.6774 15.5824C11.6845 15.5824 11.6917 15.5824 11.6988 15.5824C11.706 15.5824 11.7131 15.5824 11.7203 15.5824C11.7274 15.5824 11.7345 15.5824 11.7417 15.5824C11.7488 15.5824 11.7559 15.5824 11.763 15.5824C11.7702 15.5824 11.7773 15.5824 11.7844 15.5824C11.7915 15.5824 11.7986 15.5824 11.8057 15.5824C11.8128 15.5824 11.8199 15.5824 11.827 15.5824C11.8341 15.5824 11.8412 15.5824 11.8483 15.5824C11.8554 15.5824 11.8625 15.5824 11.8696 15.5824C11.8766 15.5824 11.8837 15.5824 11.8908 15.5824C11.8979 15.5824 11.9049 15.5824 11.912 15.5824C11.919 15.5824 11.9261 15.5824 11.9331 15.5824C11.9402 15.5824 11.9473 15.5824 11.9543 15.5824C11.9613 15.5824 11.9684 15.5824 11.9754 15.5824C11.9824 15.5824 11.9895 15.5824 11.9965 15.5824C12.0035 15.5824 12.0106 15.5824 12.0176 15.5824C12.0246 15.5824 12.0316 15.5824 12.0386 15.5824C12.0456 15.5824 12.0526 15.5824 12.0596 15.5824C12.0666 15.5824 12.0736 15.5824 12.0806 15.5824C12.0876 15.5824 12.0946 15.5824 12.1016 15.5824C12.1086 15.5824 12.1156 15.5824 12.1225 15.5824C12.1295 15.5824 12.1365 15.5824 12.1435 15.5824C12.1504 15.5824 12.1574 15.5824 12.1644 15.5824C12.1713 15.5824 12.1783 15.5824 12.1852 15.5824C12.1922 15.5824 12.1991 15.5824 12.2061 15.5824C12.213 15.5824 12.22 15.5824 12.2269 15.5824C12.2338 15.5824 12.2408 15.5824 12.2477 15.5824C12.2546 15.5824 12.2615 15.5824 12.2685 15.5824C12.2754 15.5824 12.2823 15.5824 12.2892 15.5824C12.2961 15.5824 12.303 15.5824 12.3099 15.5824C12.3168 15.5824 12.3237 15.5824 12.3306 15.5824C12.3375 15.5824 12.3444 15.5824 12.3513 15.5824C12.3582 15.5824 12.3651 15.5824 12.372 15.5824C12.3789 15.5824 12.3857 15.5824 12.3926 15.5824C12.3995 15.5824 12.4064 15.5824 12.4132 15.5824C12.4201 15.5824 12.4269 15.5824 12.4338 15.5824C12.4407 15.5824 12.4475 15.5824 12.4544 15.5824C12.4612 15.5824 12.4681 15.5824 12.4749 15.5824C12.4818 15.5824 12.4886 15.5824 12.4954 15.5824C12.5023 15.5824 12.5091 15.5824 12.5159 15.5824C12.5227 15.5824 12.5296 15.5824 12.5364 15.5824C12.5432 15.5824 12.55 15.5824 12.5568 15.5824C12.5637 15.5824 12.5705 15.5824 12.5773 15.5824C12.5841 15.5824 12.5909 15.5824 12.5977 15.5824C12.6045 15.5824 12.6113 15.5824 12.6181 15.5824C12.6249 15.5824 12.6316 15.5824 12.6384 15.5824C12.6452 15.5824 12.652 15.5824 12.6588 15.5824C12.6656 15.5824 12.6723 15.5824 12.6791 15.5824C12.6859 15.5824 12.6926 15.5824 12.6994 15.5824C12.7062 15.5824 12.7129 15.5824 12.7197 15.5824C12.7264 15.5824 12.7332 15.5824 12.7399 15.5824C12.7467 15.5824 12.7534 15.5824 12.7602 15.5824C12.7669 15.5824 12.7736 15.5824 12.7804 15.5824C12.7871 15.5824 12.7939 15.5824 12.8006 15.5824C12.8073 15.5824 12.814 15.5824 12.8208 15.5824C12.8275 15.5824 12.8342 15.5824 12.8409 15.5824C12.8476 15.5824 12.8543 15.5824 12.861 15.5824C12.8677 15.5824 12.8745 15.5824 12.8812 15.5824C12.8879 15.5824 12.8946 15.5824 12.9012 15.5824C12.9079 15.5824 12.9146 15.5824 12.9213 15.5824C12.928 15.5824 12.9347 15.5824 12.9414 15.5824C12.9481 15.5824 12.9547 15.5824 12.9614 15.5824C12.9681 15.5824 12.9748 15.5824 12.9814 15.5824C12.9881 15.5824 12.9948 15.5824 13.0014 15.5824C13.0081 15.5824 13.0147 15.5824 13.0214 15.5824C13.0281 15.5824 13.0347 15.5824 13.0414 15.5824C13.048 15.5824 13.0547 15.5824 13.0613 15.5824C13.0679 15.5824 13.0746 15.5824 13.0812 15.5824C13.0878 15.5824 13.0945 15.5824 13.1011 15.5824C13.1077 15.5824 13.1144 15.5824 13.121 15.5824C13.1276 15.5824 13.1342 15.5824 13.1409 15.5824C13.1475 15.5824 13.1541 15.5824 13.1607 15.5824C13.1673 15.5824 13.1739 15.5824 13.1805 15.5824C13.1871 15.5824 13.1937 15.5824 13.2003 15.5824C13.2069 15.5824 13.2135 15.5824 13.2201 15.5824C13.2267 15.5824 13.2333 15.5824 13.2399 15.5824C13.2465 15.5824 13.2531 15.5824 13.2597 15.5824C13.2662 15.5824 13.2728 15.5824 13.2794 15.5824C13.286 15.5824 13.2925 15.5824 13.2991 15.5824C13.3057 15.5824 13.3122 15.5824 13.3188 15.5824C13.3254 15.5824 13.3319 15.5824 13.3385 15.5824C13.3451 15.5824 13.3516 15.5824 13.3582 15.5824C13.3647 15.5824 13.3713 15.5824 13.3778 15.5824C13.3844 15.5824 13.3909 15.5824 13.3975 15.5824C13.404 15.5824 13.4105 15.5824 13.4171 15.5824C13.4236 15.5824 13.4301 15.5824 13.4367 15.5824C13.4432 15.5824 13.4497 15.5824 13.4563 15.5824C13.4628 15.5824 13.4693 15.5824 13.4758 15.5824C13.4823 15.5824 13.4889 15.5824 13.4954 15.5824C13.5019 15.5824 13.5084 15.5824 13.5149 15.5824C13.5214 15.5824 13.5279 15.5824 13.5344 15.5824C13.5409 15.5824 13.5474 15.5824 13.5539 15.5824C13.5604 15.5824 13.5669 15.5824 13.5734 15.5824C13.5799 15.5824 13.5864 15.5824 13.5929 15.5824C13.5994 15.5824 13.6059 15.5824 13.6123 15.5824C13.6188 15.5824 13.6253 15.5824 13.6318 15.5824C13.6383 15.5824 13.6447 15.5824 13.6512 15.5824C13.6577 15.5824 13.6642 15.5824 13.6706 15.5824C13.6771 15.5824 13.6836 15.5824 13.69 15.5824C13.6965 15.5824 13.7029 15.5824 13.7094 15.5824C13.7159 15.5824 13.7223 15.5824 13.7288 15.5824C13.7352 15.5824 13.7417 15.5824 13.7481 15.5824C13.7546 15.5824 13.761 15.5824 13.7675 15.5824C13.7739 15.5824 13.7803 15.5824 13.7868 15.5824C13.7932 15.5824 13.7997 15.5824 13.8061 15.5824C13.8125 15.5824 13.819 15.5824 13.8254 15.5824C13.8318 15.5824 13.8382 15.5824 13.8447 15.5824C13.8511 15.5824 13.8575 15.5824 13.8639 15.5824C13.8703 15.5824 13.8768 15.5824 13.8832 15.5824C13.8896 15.5824 13.896 15.5824 13.9024 15.5824C13.9088 15.5824 13.9152 15.5824 13.9216 15.5824C13.9281 15.5824 13.9345 15.5824 13.9409 15.5824C13.9473 15.5824 13.9537 15.5824 13.9601 15.5824C13.9665 15.5824 13.9728 15.5824 13.9792 15.5824C13.9856 15.5824 13.992 15.5824 13.9984 15.5824C14.0048 15.5824 14.0112 15.5824 14.0176 15.5824C14.024 15.5824 14.0303 15.5824 14.0367 15.5824C14.0431 15.5824 14.0495 15.5824 14.0559 15.5824C14.0622 15.5824 14.0686 15.5824 14.075 15.5824C14.0814 15.5824 14.0877 15.5824 14.0941 15.5824C14.1005 15.5824 14.1068 15.5824 14.1132 15.5824C14.1196 15.5824 14.1259 15.5824 14.1323 15.5824C14.1386 15.5824 14.145 15.5824 14.1513 15.5824C14.1577 15.5824 14.1641 15.5824 14.1704 15.5824C14.1768 15.5824 14.1831 15.5824 14.1895 15.5824C14.1958 15.5824 14.2022 15.5824 14.2085 15.5824C14.2148 15.5824 14.2212 15.5824 14.2275 15.5824C14.2339 15.5824 14.2402 15.5824 14.2465 15.5824C14.2529 15.5824 14.2592 15.5824 14.2655 15.5824C14.2719 15.5824 14.2782 15.5824 14.2845 15.5824C14.2909 15.5824 14.2972 15.5824 14.3035 15.5824C14.3098 15.5824 14.3162 15.5824 14.3225 15.5824C14.3288 15.5824 14.3351 15.5824 14.3415 15.5824C14.3478 15.5824 14.3541 15.5824 14.3604 15.5824C14.3667 15.5824 14.373 15.5824 14.3793 15.5824C14.3857 15.5824 14.392 15.5824 14.3983 15.5824C14.4046 15.5824 14.4109 15.5824 14.4172 15.5824C14.4235 15.5824 14.4298 15.5824 14.4361 15.5824C14.4424 15.5824 14.4487 15.5824 14.455 15.5824C14.4613 15.5824 14.4676 15.5824 14.4739 15.5824C14.4802 15.5824 14.4865 15.5824 14.4928 15.5824C14.4991 15.5824 14.5054 15.5824 14.5116 15.5824C14.5179 15.5824 14.5242 15.5824 14.5305 15.5824C14.5368 15.5824 14.5431 15.5824 14.5494 15.5824C14.5556 15.5824 14.5619 15.5824 14.5682 15.5824C14.5745 15.5824 14.5808 15.5824 14.587 15.5824C14.5933 15.5824 14.5996 15.5824 14.6059 15.5824C14.6121 15.5824 14.6184 15.5824 14.6247 15.5824C14.6309 15.5824 14.6372 15.5824 14.6435 15.5824C14.6497 15.5824 14.656 15.5824 14.6623 15.5824C14.6685 15.5824 14.6748 15.5824 14.6811 15.5824C14.6873 15.5824 14.6936 15.5824 14.6998 15.5824C14.7061 15.5824 14.7124 15.5824 14.7186 15.5824C14.7249 15.5824 14.7311 15.5824 14.7374 15.5824C14.7436 15.5824 14.7499 15.5824 14.7561 15.5824C14.7624 15.5824 14.7686 15.5824 14.7749 15.5824C14.7811 15.5824 14.7874 15.5824 14.7936 15.5824C14.7999 15.5824 14.8061 15.5824 14.8124 15.5824C14.8186 15.5824 14.8249 15.5824 14.8311 15.5824C14.8373 15.5824 14.8436 15.5824 14.8498 15.5824C14.8561 15.5824 14.8623 15.5824 14.8685 15.5824C14.8748 15.5824 14.881 15.5824 14.8872 15.5824C14.8935 15.5824 14.8997 15.5824 14.9059 15.5824C14.9122 15.5824 14.9184 15.5824 14.9246 15.5824C14.9309 15.5824 14.9371 15.5824 14.9433 15.5824C14.9495 15.5824 14.9558 15.5824 14.962 15.5824C14.9682 15.5824 14.9744 15.5824 14.9807 15.5824C14.9869 15.5824 14.9931 15.5824 14.9993 15.5824C15.0055 15.5824 15.0118 15.5824 15.018 15.5824C15.0242 15.5824 15.0304 15.5824 15.0366 15.5824C15.0429 15.5824 15.0491 15.5824 15.0553 15.5824C15.0615 15.5824 15.0677 15.5824 15.0739 15.5824C15.0801 15.5824 15.0864 15.5824 15.0926 15.5824C15.0988 15.5824 15.105 15.5824 15.1112 15.5824C15.1174 15.5824 15.1236 15.5824 15.1298 15.5824C15.136 15.5824 15.1422 15.5824 15.1484 15.5824C15.1546 15.5824 15.1608 15.5824 15.1671 15.5824C15.1733 15.5824 15.1795 15.5824 15.1857 15.5824C15.1919 15.5824 15.1981 15.5824 15.2043 15.5824C15.2105 15.5824 15.2167 15.5824 15.2229 15.5824C15.2291 15.5824 15.2353 15.5824 15.2415 15.5824C15.2477 15.5824 15.2539 15.5824 15.2601 15.5824C15.2663 15.5824 15.2724 15.5824 15.2786 15.5824C15.2848 15.5824 15.291 15.5824 15.2972 15.5824C15.3034 15.5824 15.3096 15.5824 15.3158 15.5824C15.322 15.5824 15.3282 15.5824 15.3344 15.5824C15.3406 15.5824 15.3468 15.5824 15.3529 15.5824C15.3591 15.5824 15.3653 15.5824 15.3715 15.5824C15.3777 15.5824 15.3839 15.5824 15.3901 15.5824C15.3963 15.5824 15.4024 15.5824 15.4086 15.5824C15.4148 15.5824 15.421 15.5824 15.4272 15.5824C15.4334 15.5824 15.4396 15.5824 15.4457 15.5824C15.4519 15.5824 15.4581 15.5824 15.4643 15.5824C15.4705 15.5824 15.4767 15.5824 15.4828 15.5824C15.489 15.5824 15.4952 15.5824 15.5014 15.5824C15.5076 15.5824 15.5137 15.5824 15.5199 15.5824C15.5261 15.5824 15.5323 15.5824 15.5385 15.5824C15.5446 15.5824 15.5508 15.5824 15.557 15.5824C15.5632 15.5824 15.5693 15.5824 15.5755 15.5824C15.5817 15.5824 15.5879 15.5824 15.5941 15.5824C15.6002 15.5824 15.6064 15.5824 15.6126 15.5824C15.6188 15.5824 15.6249 15.5824 15.6311 15.5824C15.6373 15.5824 15.6435 15.5824 15.6496 15.5824C15.6558 15.5824 15.662 15.5824 15.6682 15.5824C15.6743 15.5824 15.6805 15.5824 15.6867 15.5824C15.6929 15.5824 15.699 15.5824 15.7052 15.5824C15.7114 15.5824 15.7175 15.5824 15.7237 15.5824C15.7299 15.5824 15.7361 15.5824 15.7422 15.5824C15.7484 15.5824 15.7546 15.5824 15.7607 15.5824C15.7669 15.5824 15.7731 15.5824 15.7793 15.5824C15.7854 15.5824 15.7916 15.5824 15.7978 15.5824C15.8039 15.5824 15.8101 15.5824 15.8163 15.5824C15.8225 15.5824 15.8286 15.5824 15.8348 15.5824C15.841 15.5824 15.8471 15.5824 15.8533 15.5824C15.8595 15.5824 15.8657 15.5824 15.8718 15.5824C15.878 15.5824 15.8842 15.5824 15.8903 15.5824C15.8965 15.5824 15.9027 15.5824 15.9088 15.5824C15.915 15.5824 15.9212 15.5824 15.9274 15.5824C15.9335 15.5824 15.9397 15.5824 15.9459 15.5824C15.952 15.5824 15.9582 15.5824 15.9644 15.5824C15.9706 15.5824 15.9767 15.5824 15.9829 15.5824C15.9891 15.5824 15.9952 15.5824 16.0014 15.5824C16.0076 15.5824 16.0138 15.5824 16.0199 15.5824C16.0261 15.5824 16.0323 15.5824 16.0384 15.5824C16.0446 15.5824 16.0508 15.5824 16.057 15.5824C16.0631 15.5824 16.0693 15.5824 16.0755 15.5824C16.0816 15.5824 16.0878 15.5824 16.094 15.5824C16.1002 15.5824 16.1063 15.5824 16.1125 15.5824C16.1187 15.5824 16.1248 15.5824 16.131 15.5824C16.1372 15.5824 16.1434 15.5824 16.1495 15.5824C16.1557 15.5824 16.1619 15.5824 16.1681 15.5824C16.1742 15.5824 16.1804 15.5824 16.1866 15.5824C16.1928 15.5824 16.1989 15.5824 16.2051 15.5824C16.2113 15.5824 16.2175 15.5824 16.2236 15.5824C16.2298 15.5824 16.236 15.5824 16.2422 15.5824C16.2484 15.5824 16.2545 15.5824 16.2607 15.5824C16.2669 15.5824 16.2731 15.5824 16.2792 15.5824C16.2854 15.5824 16.2916 15.5824 16.2978 15.5824C16.304 15.5824 16.3101 15.5824 16.3163 15.5824C16.3225 15.5824 16.3287 15.5824 16.3349 15.5824C16.341 15.5824 16.3472 15.5824 16.3534 15.5824C16.3596 15.5824 16.3658 15.5824 16.372 15.5824C16.3781 15.5824 16.3843 15.5824 16.3905 15.5824C16.3967 15.5824 16.4029 15.5824 16.4091 15.5824C16.4153 15.5824 16.4214 15.5824 16.4276 15.5824C16.4338 15.5824 16.44 15.5824 16.4462 15.5824C16.4524 15.5824 16.4586 15.5824 16.4648 15.5824C16.4709 15.5824 16.4771 15.5824 16.4833 15.5824C16.4895 15.5824 16.4957 15.5824 16.5019 15.5824C16.5081 15.5824 16.5143 15.5824 16.5205 15.5824C16.5267 15.5824 16.5329 15.5824 16.5391 15.5824C16.5453 15.5824 16.5514 15.5824 16.5576 15.5824C16.5638 15.5824 16.57 15.5824 16.5762 15.5824C16.5824 15.5824 16.5886 15.5824 16.5948 15.5824C16.601 15.5824 16.6072 15.5824 16.6134 15.5824C16.6196 15.5824 16.6258 15.5824 16.632 15.5824C16.6382 15.5824 16.6444 15.5824 16.6506 15.5824C16.6568 15.5824 16.6631 15.5824 16.6693 15.5824C16.6755 15.5824 16.6817 15.5824 16.6879 15.5824C16.6941 15.5824 16.7003 15.5824 16.7065 15.5824C16.7127 15.5824 16.7189 15.5824 16.7251 15.5824C16.7313 15.5824 16.7376 15.5824 16.7438 15.5824C16.75 15.5824 16.7562 15.5824 16.7624 15.5824C16.7686 15.5824 16.7748 15.5824 16.7811 15.5824C16.7873 15.5824 16.7935 15.5824 16.7997 15.5824C16.8059 15.5824 16.8122 15.5824 16.8184 15.5824C16.8246 15.5824 16.8308 15.5824 16.837 15.5824C16.8433 15.5824 16.8495 15.5824 16.8557 15.5824C16.8619 15.5824 16.8682 15.5824 16.8744 15.5824C16.8806 15.5824 16.8868 15.5824 16.8931 15.5824C16.8993 15.5824 16.9055 15.5824 16.9118 15.5824C16.918 15.5824 16.9242 15.5824 16.9305 15.5824C16.9367 15.5824 16.9429 15.5824 16.9492 15.5824C16.9554 15.5824 16.9616 15.5824 16.9679 15.5824C16.9741 15.5824 16.9804 15.5824 16.9866 15.5824C16.9928 15.5824 16.9991 15.5824 17.0053 15.5824C17.0116 15.5824 17.0178 15.5824 17.0241 15.5824C17.0303 15.5824 17.0366 15.5824 17.0428 15.5824C17.0491 15.5824 17.0553 15.5824 17.0616 15.5824C17.0678 15.5824 17.0741 15.5824 17.0803 15.5824C17.0866 15.5824 17.0928 15.5824 17.0991 15.5824C17.1053 15.5824 17.1116 15.5824 17.1178 15.5824C17.1241 15.5824 17.1304 15.5824 17.1366 15.5824C17.1429 15.5824 17.1492 15.5824 17.1554 15.5824C17.1617 15.5824 17.168 15.5824 17.1742 15.5824C17.1805 15.5824 17.1868 15.5824 17.193 15.5824C17.1993 15.5824 17.2056 15.5824 17.2118 15.5824C17.2181 15.5824 17.2244 15.5824 17.2307 15.5824C17.2369 15.5824 17.2432 15.5824 17.2495 15.5824C17.2558 15.5824 17.2621 15.5824 17.2683 15.5824C17.2746 15.5824 17.2809 15.5824 17.2872 15.5824C17.2935 15.5824 17.2998 15.5824 17.3061 15.5824C17.3123 15.5824 17.3186 15.5824 17.3249 15.5824C17.3312 15.5824 17.3375 15.5824 17.3438 15.5824C17.3501 15.5824 17.3564 15.5824 17.3627 15.5824C17.369 15.5824 17.3753 15.5824 17.3816 15.5824C17.3879 15.5824 17.3942 15.5824 17.4005 15.5824C17.4068 15.5824 17.4131 15.5824 17.4194 15.5824C17.4257 15.5824 17.432 15.5824 17.4384 15.5824C17.4447 15.5824 17.451 15.5824 17.4573 15.5824C17.4636 15.5824 17.4699 15.5824 17.4762 15.5824C17.4826 15.5824 17.4889 15.5824 17.4952 15.5824C17.5015 15.5824 17.5078 15.5824 17.5142 15.5824C17.5205 15.5824 17.5268 15.5824 17.5332 15.5824C17.5395 15.5824 17.5458 15.5824 17.5522 15.5824C17.5585 15.5824 17.5648 15.5824 17.5712 15.5824C17.5775 15.5824 17.5838 15.5824 17.5902 15.5824C17.5965 15.5824 17.6029 15.5824 17.6092 15.5824C17.6155 15.5824 17.6219 15.5824 17.6282 15.5824C17.6346 15.5824 17.6409 15.5824 17.6473 15.5824C17.6536 15.5824 17.66 15.5824 17.6664 15.5824C17.6727 15.5824 17.6791 15.5824 17.6854 15.5824C17.6918 15.5824 17.6981 15.5824 17.7045 15.5824C17.7109 15.5824 17.7172 15.5824 17.7236 15.5824C17.73 15.5824 17.7363 15.5824 17.7427 15.5824C17.7491 15.5824 17.7555 15.5824 17.7618 15.5824C17.7682 15.5824 17.7746 15.5824 17.781 15.5824C17.7874 15.5824 17.7937 15.5824 17.8001 15.5824C17.8065 15.5824 17.8129 15.5824 17.8193 15.5824C17.8257 15.5824 17.8321 15.5824 17.8385 15.5824C17.8448 15.5824 17.8512 15.5824 17.8576 15.5824C17.864 15.5824 17.8704 15.5824 17.8768 15.5824C17.8832 15.5824 17.8896 15.5824 17.8961 15.5824C17.9025 15.5824 17.9089 15.5824 17.9153 15.5824C17.9217 15.5824 17.9281 15.5824 17.9345 15.5824C17.9409 15.5824 17.9474 15.5824 17.9538 15.5824C17.9602 15.5824 17.9666 15.5824 17.973 15.5824C17.9795 15.5824 17.9859 15.5824 17.9923 15.5824C17.9987 15.5824 18.0052 15.5824 18.0116 15.5824C18.018 15.5824 18.0245 15.5824 18.0309 15.5824C18.0374 15.5824 18.0438 15.5824 18.0502 15.5824C18.0567 15.5824 18.0631 15.5824 18.0696 15.5824C18.076 15.5824 18.0825 15.5824 18.0889 15.5824C18.0954 15.5824 18.1018 15.5824 18.1083 15.5824C18.1148 15.5824 18.1212 15.5824 18.1277 15.5824C18.1341 15.5824 18.1406 15.5824 18.1471 15.5824C18.1535 15.5824 18.16 15.5824 18.1665 15.5824C18.173 15.5824 18.1794 15.5824 18.1859 15.5824C18.1924 15.5824 18.1989 15.5824 18.2054 15.5824C18.2118 15.5824 18.2183 15.5824 18.2248 15.5824C18.2313 15.5824 18.2378 15.5824 18.2443 15.5824C18.2508 15.5824 18.2573 15.5824 18.2638 15.5824C18.2703 15.5824 18.2768 15.5824 18.2833 15.5824C18.2898 15.5824 18.2963 15.5824 18.3028 15.5824C18.3093 15.5824 18.3158 15.5824 18.3223 15.5824C18.3288 15.5824 18.3354 15.5824 18.3419 15.5824C18.3484 15.5824 18.3549 15.5824 18.3614 15.5824C18.368 15.5824 18.3745 15.5824 18.381 15.5824C18.3876 15.5824 18.3941 15.5824 18.4006 15.5824C18.4072 15.5824 18.4137 15.5824 18.4202 15.5824C18.4268 15.5824 18.4333 15.5824 18.4399 15.5824C18.4464 15.5824 18.453 15.5824 18.4595 15.5824C18.4661 15.5824 18.4726 15.5824 18.4792 15.5824C18.4858 15.5824 18.4923 15.5824 18.4989 15.5824C18.5054 15.5824 18.512 15.5824 18.5186 15.5824C18.5252 15.5824 18.5317 15.5824 18.5383 15.5824C18.5449 15.5824 18.5515 15.5824 18.558 15.5824C18.5646 15.5824 18.5712 15.5824 18.5778 15.5824C18.5844 15.5824 18.591 15.5824 18.5976 15.5824C18.6042 15.5824 18.6108 15.5824 18.6174 15.5824C18.624 15.5824 18.6306 15.5824 18.6372 15.5824C18.6438 15.5824 18.6504 15.5824 18.657 15.5824C18.6636 15.5824 18.6702 15.5824 18.6768 15.5824C18.6835 15.5824 18.6901 15.5824 18.6967 15.5824C18.7033 15.5824 18.71 15.5824 18.7166 15.5824C18.7232 15.5824 18.7299 15.5824 18.7365 15.5824C18.7431 15.5824 18.7498 15.5824 18.7564 15.5824C18.763 15.5824 18.7697 15.5824 18.7763 15.5824C18.783 15.5824 18.7896 15.5824 18.7963 15.5824C18.803 15.5824 18.8096 15.5824 18.8163 15.5824C18.8229 15.5824 18.8296 15.5824 18.8363 15.5824C18.8429 15.5824 18.8496 15.5824 18.8563 15.5824C18.863 15.5824 18.8696 15.5824 18.8763 15.5824C18.883 15.5824 18.8897 15.5824 18.8964 15.5824C18.9031 15.5824 18.9098 15.5824 18.9164 15.5824C18.9231 15.5824 18.9298 15.5824 18.9365 15.5824C18.9432 15.5824 18.9499 15.5824 18.9567 15.5824C18.9634 15.5824 18.9701 15.5824 18.9768 15.5824C18.9835 15.5824 18.9902 15.5824 18.9969 15.5824C19.0037 15.5824 19.0104 15.5824 19.0171 15.5824C19.0238 15.5824 19.0306 15.5824 19.0373 15.5824C19.0441 15.5824 19.0508 15.5824 19.0575 15.5824C19.0643 15.5824 19.071 15.5824 19.0778 15.5824C19.0845 15.5824 19.0913 15.5824 19.098 15.5824C19.1048 15.5824 19.1115 15.5824 19.1183 15.5824C19.1251 15.5824 19.1318 15.5824 19.1386 15.5824C19.1454 15.5824 19.1521 15.5824 19.1589 15.5824C19.1657 15.5824 19.1725 15.5824 19.1793 15.5824C19.1861 15.5824 19.1928 15.5824 19.1996 15.5824C19.2064 15.5824 19.2132 15.5824 19.22 15.5824C19.2268 15.5824 19.2336 15.5824 19.2404 15.5824C19.2472 15.5824 19.254 15.5824 19.2609 15.5824C19.2677 15.5824 19.2745 15.5824 19.2813 15.5824C19.2881 15.5824 19.2949 15.5824 19.3018 15.5824C19.3086 15.5824 19.3154 15.5824 19.3223 15.5824C19.3291 15.5824 19.3359 15.5824 19.3428 15.5824C19.3496 15.5824 19.3565 15.5824 19.3633 15.5824C19.3702 15.5824 19.377 15.5824 19.3839 15.5824C19.3908 15.5824 19.3976 15.5824 19.4045 15.5824C19.4113 15.5824 19.4182 15.5824 19.4251 15.5824C19.432 15.5824 19.4388 15.5824 19.4457 15.5824C19.4526 15.5824 19.4595 15.5824 19.4664 15.5824C19.4733 15.5824 19.4802 15.5824 19.4871 15.5824C19.494 15.5824 19.5009 15.5824 19.5078 15.5824C19.5147 15.5824 19.5216 15.5824 19.5285 15.5824C19.5354 15.5824 19.5423 15.5824 19.5492 15.5824C19.5562 15.5824 19.5631 15.5824 19.57 15.5824C19.5769 15.5824 19.5839 15.5824 19.5908 15.5824C19.5977 15.5824 19.6047 15.5824 19.6116 15.5824C19.6186 15.5824 19.6255 15.5824 19.6325 15.5824C19.6394 15.5824 19.6464 15.5824 19.6533 15.5824C19.6603 15.5824 19.6673 15.5824 19.6742 15.5824C19.6812 15.5824 19.6882 15.5824 19.6952 15.5824C19.7021 15.5824 19.7091 15.5824 19.7161 15.5824C19.7231 15.5824 19.7301 15.5824 19.7371 15.5824C19.7441 15.5824 19.7511 15.5824 19.7581 15.5824C19.7651 15.5824 19.7721 15.5824 19.7791 15.5824C19.7861 15.5824 19.7931 15.5824 19.8001 15.5824C19.8071 15.5824 19.8142 15.5824 19.8212 15.5824C19.8282 15.5824 19.8352 15.5824 19.8423 15.5824C19.8493 15.5824 19.8564 15.5824 19.8634 15.5824C19.8704 15.5824 19.8775 15.5824 19.8846 15.5824C19.8916 15.5824 19.8987 15.5824 19.9057 15.5824C19.9128 15.5824 19.9198 15.5824 19.9269 15.5824C19.934 15.5824 19.9411 15.5824 19.9481 15.5824C19.9552 15.5824 19.9623 15.5824 19.9694 15.5824C19.9765 15.5824 19.9836 15.5824 19.9907 15.5824C19.9978 15.5824 20.0049 15.5824 20.012 15.5824C20.0191 15.5824 20.0262 15.5824 20.0333 15.5824C20.0404 15.5824 20.0475 15.5824 20.0547 15.5824C20.0618 15.5824 20.0689 15.5824 20.076 15.5824C20.0832 15.5824 20.0903 15.5824 20.0974 15.5824C20.1046 15.5824 20.1117 15.5824 20.1189 15.5824C20.126 15.5824 20.1332 15.5824 20.1403 15.5824C20.1475 15.5824 20.1547 15.5824 20.1618 15.5824C20.169 15.5824 20.1762 15.5824 20.1834 15.5824C20.1905 15.5824 20.1977 15.5824 20.2049 15.5824C20.2121 15.5824 20.2193 15.5824 20.2265 15.5824C20.2337 15.5824 20.2409 15.5824 20.2481 15.5824C20.2553 15.5824 20.2625 15.5824 20.2697 15.5824C20.2769 15.5824 20.2841 15.5824 20.2914 15.5824C20.2986 15.5824 20.3058 15.5824 20.3131 15.5824C20.3203 15.5824 20.3275 15.5824 20.3348 15.5824C20.342 15.5824 20.3493 15.5824 20.3565 15.5824C20.3638 15.5824 20.371 15.5824 20.3783 15.5824C20.3855 15.5824 20.3928 15.5824 20.4001 15.5824C20.4074 15.5824 20.4146 15.5824 20.4219 15.5824C20.4292 15.5824 20.4365 15.5824 20.4438 15.5824C20.4511 15.5824 20.4584 15.5824 20.4657 15.5824C20.473 15.5824 20.4803 15.5824 20.4876 15.5824C20.4949 15.5824 20.5022 15.5824 20.5095 15.5824C20.5168 15.5824 20.5242 15.5824 20.5315 15.5824C20.5388 15.5824 20.5462 15.5824 20.5535 15.5824C20.5608 15.5824 20.5682 15.5824 20.5755 15.5824C20.5829 15.5824 20.5902 15.5824 20.5976 15.5824C20.605 15.5824 20.6123 15.5824 20.6197 15.5824C20.6271 15.5824 20.6344 15.5824 20.6418 15.5824C20.6492 15.5824 20.6566 15.5824 20.664 15.5824C20.6714 15.5824 20.6788 15.5824 20.6862 15.5824C20.6936 15.5824 20.701 15.5824 20.7084 15.5824C20.7158 15.5824 20.7232 15.5824 20.7306 15.5824C20.738 15.5824 20.7455 15.5824 20.7529 15.5824C20.7603 15.5824 20.7678 15.5824 20.7752 15.5824C20.7826 15.5824 20.7901 15.5824 20.7975 15.5824C20.805 15.5824 20.8124 15.5824 20.8199 15.5824C20.8274 15.5824 20.8348 15.5824 20.8423 15.5824C20.8498 15.5824 20.8573 15.5824 20.8647 15.5824C20.8722 15.5824 20.8797 15.5824 20.8872 15.5824C20.8947 15.5824 20.9022 15.5824 20.9097 15.5824C20.9172 15.5824 20.9247 15.5824 20.9322 15.5824C20.9397 15.5824 20.9473 15.5824 20.9548 15.5824C20.9623 15.5824 20.9698 15.5824 20.9774 15.5824C20.9849 15.5824 20.9925 15.5824 21 15.5824L21 13.8824C20.9925 13.8824 20.9849 13.8824 20.9774 13.8824C20.9698 13.8824 20.9623 13.8824 20.9548 13.8824C20.9473 13.8824 20.9397 13.8824 20.9322 13.8824C20.9247 13.8824 20.9172 13.8824 20.9097 13.8824C20.9022 13.8824 20.8947 13.8824 20.8872 13.8824C20.8797 13.8824 20.8722 13.8824 20.8647 13.8824C20.8573 13.8824 20.8498 13.8824 20.8423 13.8824C20.8348 13.8824 20.8274 13.8824 20.8199 13.8824C20.8124 13.8824 20.805 13.8824 20.7975 13.8824C20.7901 13.8824 20.7826 13.8824 20.7752 13.8824C20.7678 13.8824 20.7603 13.8824 20.7529 13.8824C20.7455 13.8824 20.738 13.8824 20.7306 13.8824C20.7232 13.8824 20.7158 13.8824 20.7084 13.8824C20.701 13.8824 20.6936 13.8824 20.6862 13.8824C20.6788 13.8824 20.6714 13.8824 20.664 13.8824C20.6566 13.8824 20.6492 13.8824 20.6418 13.8824C20.6344 13.8824 20.6271 13.8824 20.6197 13.8824C20.6123 13.8824 20.605 13.8824 20.5976 13.8824C20.5902 13.8824 20.5829 13.8824 20.5755 13.8824C20.5682 13.8824 20.5608 13.8824 20.5535 13.8824C20.5462 13.8824 20.5388 13.8824 20.5315 13.8824C20.5242 13.8824 20.5168 13.8824 20.5095 13.8824C20.5022 13.8824 20.4949 13.8824 20.4876 13.8824C20.4803 13.8824 20.473 13.8824 20.4657 13.8824C20.4584 13.8824 20.4511 13.8824 20.4438 13.8824C20.4365 13.8824 20.4292 13.8824 20.4219 13.8824C20.4146 13.8824 20.4074 13.8824 20.4001 13.8824C20.3928 13.8824 20.3855 13.8824 20.3783 13.8824C20.371 13.8824 20.3638 13.8824 20.3565 13.8824C20.3493 13.8824 20.342 13.8824 20.3348 13.8824C20.3275 13.8824 20.3203 13.8824 20.3131 13.8824C20.3058 13.8824 20.2986 13.8824 20.2914 13.8824C20.2841 13.8824 20.2769 13.8824 20.2697 13.8824C20.2625 13.8824 20.2553 13.8824 20.2481 13.8824C20.2409 13.8824 20.2337 13.8824 20.2265 13.8824C20.2193 13.8824 20.2121 13.8824 20.2049 13.8824C20.1977 13.8824 20.1905 13.8824 20.1834 13.8824C20.1762 13.8824 20.169 13.8824 20.1618 13.8824C20.1547 13.8824 20.1475 13.8824 20.1403 13.8824C20.1332 13.8824 20.126 13.8824 20.1189 13.8824C20.1117 13.8824 20.1046 13.8824 20.0974 13.8824C20.0903 13.8824 20.0832 13.8824 20.076 13.8824C20.0689 13.8824 20.0618 13.8824 20.0547 13.8824C20.0475 13.8824 20.0404 13.8824 20.0333 13.8824C20.0262 13.8824 20.0191 13.8824 20.012 13.8824C20.0049 13.8824 19.9978 13.8824 19.9907 13.8824C19.9836 13.8824 19.9765 13.8824 19.9694 13.8824C19.9623 13.8824 19.9552 13.8824 19.9481 13.8824C19.9411 13.8824 19.934 13.8824 19.9269 13.8824C19.9198 13.8824 19.9128 13.8824 19.9057 13.8824C19.8987 13.8824 19.8916 13.8824 19.8846 13.8824C19.8775 13.8824 19.8704 13.8824 19.8634 13.8824C19.8564 13.8824 19.8493 13.8824 19.8423 13.8824C19.8352 13.8824 19.8282 13.8824 19.8212 13.8824C19.8142 13.8824 19.8071 13.8824 19.8001 13.8824C19.7931 13.8824 19.7861 13.8824 19.7791 13.8824C19.7721 13.8824 19.7651 13.8824 19.7581 13.8824C19.7511 13.8824 19.7441 13.8824 19.7371 13.8824C19.7301 13.8824 19.7231 13.8824 19.7161 13.8824C19.7091 13.8824 19.7021 13.8824 19.6952 13.8824C19.6882 13.8824 19.6812 13.8824 19.6742 13.8824C19.6673 13.8824 19.6603 13.8824 19.6533 13.8824C19.6464 13.8824 19.6394 13.8824 19.6325 13.8824C19.6255 13.8824 19.6186 13.8824 19.6116 13.8824C19.6047 13.8824 19.5977 13.8824 19.5908 13.8824C19.5839 13.8824 19.5769 13.8824 19.57 13.8824C19.5631 13.8824 19.5562 13.8824 19.5492 13.8824C19.5423 13.8824 19.5354 13.8824 19.5285 13.8824C19.5216 13.8824 19.5147 13.8824 19.5078 13.8824C19.5009 13.8824 19.494 13.8824 19.4871 13.8824C19.4802 13.8824 19.4733 13.8824 19.4664 13.8824C19.4595 13.8824 19.4526 13.8824 19.4457 13.8824C19.4388 13.8824 19.432 13.8824 19.4251 13.8824C19.4182 13.8824 19.4113 13.8824 19.4045 13.8824C19.3976 13.8824 19.3908 13.8824 19.3839 13.8824C19.377 13.8824 19.3702 13.8824 19.3633 13.8824C19.3565 13.8824 19.3496 13.8824 19.3428 13.8824C19.3359 13.8824 19.3291 13.8824 19.3223 13.8824C19.3154 13.8824 19.3086 13.8824 19.3018 13.8824C19.2949 13.8824 19.2881 13.8824 19.2813 13.8824C19.2745 13.8824 19.2677 13.8824 19.2609 13.8824C19.254 13.8824 19.2472 13.8824 19.2404 13.8824C19.2336 13.8824 19.2268 13.8824 19.22 13.8824C19.2132 13.8824 19.2064 13.8824 19.1996 13.8824C19.1928 13.8824 19.1861 13.8824 19.1793 13.8824C19.1725 13.8824 19.1657 13.8824 19.1589 13.8824C19.1521 13.8824 19.1454 13.8824 19.1386 13.8824C19.1318 13.8824 19.1251 13.8824 19.1183 13.8824C19.1115 13.8824 19.1048 13.8824 19.098 13.8824C19.0913 13.8824 19.0845 13.8824 19.0778 13.8824C19.071 13.8824 19.0643 13.8824 19.0575 13.8824C19.0508 13.8824 19.0441 13.8824 19.0373 13.8824C19.0306 13.8824 19.0238 13.8824 19.0171 13.8824C19.0104 13.8824 19.0037 13.8824 18.9969 13.8824C18.9902 13.8824 18.9835 13.8824 18.9768 13.8824C18.9701 13.8824 18.9634 13.8824 18.9567 13.8824C18.9499 13.8824 18.9432 13.8824 18.9365 13.8824C18.9298 13.8824 18.9231 13.8824 18.9164 13.8824C18.9098 13.8824 18.9031 13.8824 18.8964 13.8824C18.8897 13.8824 18.883 13.8824 18.8763 13.8824C18.8696 13.8824 18.863 13.8824 18.8563 13.8824C18.8496 13.8824 18.8429 13.8824 18.8363 13.8824C18.8296 13.8824 18.8229 13.8824 18.8163 13.8824C18.8096 13.8824 18.803 13.8824 18.7963 13.8824C18.7896 13.8824 18.783 13.8824 18.7763 13.8824C18.7697 13.8824 18.763 13.8824 18.7564 13.8824C18.7498 13.8824 18.7431 13.8824 18.7365 13.8824C18.7299 13.8824 18.7232 13.8824 18.7166 13.8824C18.71 13.8824 18.7033 13.8824 18.6967 13.8824C18.6901 13.8824 18.6835 13.8824 18.6768 13.8824C18.6702 13.8824 18.6636 13.8824 18.657 13.8824C18.6504 13.8824 18.6438 13.8824 18.6372 13.8824C18.6306 13.8824 18.624 13.8824 18.6174 13.8824C18.6108 13.8824 18.6042 13.8824 18.5976 13.8824C18.591 13.8824 18.5844 13.8824 18.5778 13.8824C18.5712 13.8824 18.5646 13.8824 18.558 13.8824C18.5515 13.8824 18.5449 13.8824 18.5383 13.8824C18.5317 13.8824 18.5252 13.8824 18.5186 13.8824C18.512 13.8824 18.5055 13.8824 18.4989 13.8824C18.4923 13.8824 18.4858 13.8824 18.4792 13.8824C18.4726 13.8824 18.4661 13.8824 18.4595 13.8824C18.453 13.8824 18.4464 13.8824 18.4399 13.8824C18.4333 13.8824 18.4268 13.8824 18.4202 13.8824C18.4137 13.8824 18.4072 13.8824 18.4006 13.8824C18.3941 13.8824 18.3876 13.8824 18.381 13.8824C18.3745 13.8824 18.368 13.8824 18.3614 13.8824C18.3549 13.8824 18.3484 13.8824 18.3419 13.8824C18.3354 13.8824 18.3288 13.8824 18.3223 13.8824C18.3158 13.8824 18.3093 13.8824 18.3028 13.8824C18.2963 13.8824 18.2898 13.8824 18.2833 13.8824C18.2768 13.8824 18.2703 13.8824 18.2638 13.8824C18.2573 13.8824 18.2508 13.8824 18.2443 13.8824C18.2378 13.8824 18.2313 13.8824 18.2248 13.8824C18.2183 13.8824 18.2118 13.8824 18.2054 13.8824C18.1989 13.8824 18.1924 13.8824 18.1859 13.8824C18.1794 13.8824 18.173 13.8824 18.1665 13.8824C18.16 13.8824 18.1535 13.8824 18.1471 13.8824C18.1406 13.8824 18.1341 13.8824 18.1277 13.8824C18.1212 13.8824 18.1148 13.8824 18.1083 13.8824C18.1018 13.8824 18.0954 13.8824 18.0889 13.8824C18.0825 13.8824 18.076 13.8824 18.0696 13.8824C18.0631 13.8824 18.0567 13.8824 18.0502 13.8824C18.0438 13.8824 18.0374 13.8824 18.0309 13.8824C18.0245 13.8824 18.018 13.8824 18.0116 13.8824C18.0052 13.8824 17.9987 13.8824 17.9923 13.8824C17.9859 13.8824 17.9795 13.8824 17.973 13.8824C17.9666 13.8824 17.9602 13.8824 17.9538 13.8824C17.9474 13.8824 17.9409 13.8824 17.9345 13.8824C17.9281 13.8824 17.9217 13.8824 17.9153 13.8824C17.9089 13.8824 17.9025 13.8824 17.8961 13.8824C17.8896 13.8824 17.8832 13.8824 17.8768 13.8824C17.8704 13.8824 17.864 13.8824 17.8576 13.8824C17.8512 13.8824 17.8448 13.8824 17.8385 13.8824C17.8321 13.8824 17.8257 13.8824 17.8193 13.8824C17.8129 13.8824 17.8065 13.8824 17.8001 13.8824C17.7937 13.8824 17.7874 13.8824 17.781 13.8824C17.7746 13.8824 17.7682 13.8824 17.7618 13.8824C17.7555 13.8824 17.7491 13.8824 17.7427 13.8824C17.7363 13.8824 17.73 13.8824 17.7236 13.8824C17.7172 13.8824 17.7109 13.8824 17.7045 13.8824C17.6981 13.8824 17.6918 13.8824 17.6854 13.8824C17.6791 13.8824 17.6727 13.8824 17.6664 13.8824C17.66 13.8824 17.6536 13.8824 17.6473 13.8824C17.6409 13.8824 17.6346 13.8824 17.6282 13.8824C17.6219 13.8824 17.6155 13.8824 17.6092 13.8824C17.6029 13.8824 17.5965 13.8824 17.5902 13.8824C17.5838 13.8824 17.5775 13.8824 17.5712 13.8824C17.5648 13.8824 17.5585 13.8824 17.5522 13.8824C17.5458 13.8824 17.5395 13.8824 17.5332 13.8824C17.5268 13.8824 17.5205 13.8824 17.5142 13.8824C17.5078 13.8824 17.5015 13.8824 17.4952 13.8824C17.4889 13.8824 17.4826 13.8824 17.4762 13.8824C17.4699 13.8824 17.4636 13.8824 17.4573 13.8824C17.451 13.8824 17.4447 13.8824 17.4384 13.8824C17.432 13.8824 17.4257 13.8824 17.4194 13.8824C17.4131 13.8824 17.4068 13.8824 17.4005 13.8824C17.3942 13.8824 17.3879 13.8824 17.3816 13.8824C17.3753 13.8824 17.369 13.8824 17.3627 13.8824C17.3564 13.8824 17.3501 13.8824 17.3438 13.8824C17.3375 13.8824 17.3312 13.8824 17.3249 13.8824C17.3186 13.8824 17.3123 13.8824 17.3061 13.8824C17.2998 13.8824 17.2935 13.8824 17.2872 13.8824C17.2809 13.8824 17.2746 13.8824 17.2683 13.8824C17.2621 13.8824 17.2558 13.8824 17.2495 13.8824C17.2432 13.8824 17.2369 13.8824 17.2307 13.8824C17.2244 13.8824 17.2181 13.8824 17.2118 13.8824C17.2056 13.8824 17.1993 13.8824 17.193 13.8824C17.1868 13.8824 17.1805 13.8824 17.1742 13.8824C17.168 13.8824 17.1617 13.8824 17.1554 13.8824C17.1492 13.8824 17.1429 13.8824 17.1366 13.8824C17.1304 13.8824 17.1241 13.8824 17.1178 13.8824C17.1116 13.8824 17.1053 13.8824 17.0991 13.8824C17.0928 13.8824 17.0866 13.8824 17.0803 13.8824C17.0741 13.8824 17.0678 13.8824 17.0616 13.8824C17.0553 13.8824 17.0491 13.8824 17.0428 13.8824C17.0366 13.8824 17.0303 13.8824 17.0241 13.8824C17.0178 13.8824 17.0116 13.8824 17.0053 13.8824C16.9991 13.8824 16.9928 13.8824 16.9866 13.8824C16.9804 13.8824 16.9741 13.8824 16.9679 13.8824C16.9616 13.8824 16.9554 13.8824 16.9492 13.8824C16.9429 13.8824 16.9367 13.8824 16.9305 13.8824C16.9242 13.8824 16.918 13.8824 16.9118 13.8824C16.9055 13.8824 16.8993 13.8824 16.8931 13.8824C16.8868 13.8824 16.8806 13.8824 16.8744 13.8824C16.8682 13.8824 16.8619 13.8824 16.8557 13.8824C16.8495 13.8824 16.8433 13.8824 16.837 13.8824C16.8308 13.8824 16.8246 13.8824 16.8184 13.8824C16.8122 13.8824 16.8059 13.8824 16.7997 13.8824C16.7935 13.8824 16.7873 13.8824 16.7811 13.8824C16.7748 13.8824 16.7686 13.8824 16.7624 13.8824C16.7562 13.8824 16.75 13.8824 16.7438 13.8824C16.7376 13.8824 16.7313 13.8824 16.7251 13.8824C16.7189 13.8824 16.7127 13.8824 16.7065 13.8824C16.7003 13.8824 16.6941 13.8824 16.6879 13.8824C16.6817 13.8824 16.6755 13.8824 16.6693 13.8824C16.6631 13.8824 16.6568 13.8824 16.6506 13.8824C16.6444 13.8824 16.6382 13.8824 16.632 13.8824C16.6258 13.8824 16.6196 13.8824 16.6134 13.8824C16.6072 13.8824 16.601 13.8824 16.5948 13.8824C16.5886 13.8824 16.5824 13.8824 16.5762 13.8824C16.57 13.8824 16.5638 13.8824 16.5576 13.8824C16.5514 13.8824 16.5453 13.8824 16.5391 13.8824C16.5329 13.8824 16.5267 13.8824 16.5205 13.8824C16.5143 13.8824 16.5081 13.8824 16.5019 13.8824C16.4957 13.8824 16.4895 13.8824 16.4833 13.8824C16.4771 13.8824 16.4709 13.8824 16.4648 13.8824C16.4586 13.8824 16.4524 13.8824 16.4462 13.8824C16.44 13.8824 16.4338 13.8824 16.4276 13.8824C16.4214 13.8824 16.4153 13.8824 16.4091 13.8824C16.4029 13.8824 16.3967 13.8824 16.3905 13.8824C16.3843 13.8824 16.3781 13.8824 16.372 13.8824C16.3658 13.8824 16.3596 13.8824 16.3534 13.8824C16.3472 13.8824 16.341 13.8824 16.3349 13.8824C16.3287 13.8824 16.3225 13.8824 16.3163 13.8824C16.3101 13.8824 16.304 13.8824 16.2978 13.8824C16.2916 13.8824 16.2854 13.8824 16.2792 13.8824C16.2731 13.8824 16.2669 13.8824 16.2607 13.8824C16.2545 13.8824 16.2484 13.8824 16.2422 13.8824C16.236 13.8824 16.2298 13.8824 16.2236 13.8824C16.2175 13.8824 16.2113 13.8824 16.2051 13.8824C16.1989 13.8824 16.1928 13.8824 16.1866 13.8824C16.1804 13.8824 16.1742 13.8824 16.1681 13.8824C16.1619 13.8824 16.1557 13.8824 16.1495 13.8824C16.1434 13.8824 16.1372 13.8824 16.131 13.8824C16.1248 13.8824 16.1187 13.8824 16.1125 13.8824C16.1063 13.8824 16.1002 13.8824 16.094 13.8824C16.0878 13.8824 16.0816 13.8824 16.0755 13.8824C16.0693 13.8824 16.0631 13.8824 16.057 13.8824C16.0508 13.8824 16.0446 13.8824 16.0384 13.8824C16.0323 13.8824 16.0261 13.8824 16.0199 13.8824C16.0138 13.8824 16.0076 13.8824 16.0014 13.8824C15.9952 13.8824 15.9891 13.8824 15.9829 13.8824C15.9767 13.8824 15.9706 13.8824 15.9644 13.8824C15.9582 13.8824 15.952 13.8824 15.9459 13.8824C15.9397 13.8824 15.9335 13.8824 15.9274 13.8824C15.9212 13.8824 15.915 13.8824 15.9088 13.8824C15.9027 13.8824 15.8965 13.8824 15.8903 13.8824C15.8842 13.8824 15.878 13.8824 15.8718 13.8824C15.8657 13.8824 15.8595 13.8824 15.8533 13.8824C15.8471 13.8824 15.841 13.8824 15.8348 13.8824C15.8286 13.8824 15.8225 13.8824 15.8163 13.8824C15.8101 13.8824 15.8039 13.8824 15.7978 13.8824C15.7916 13.8824 15.7854 13.8824 15.7793 13.8824C15.7731 13.8824 15.7669 13.8824 15.7607 13.8824C15.7546 13.8824 15.7484 13.8824 15.7422 13.8824C15.7361 13.8824 15.7299 13.8824 15.7237 13.8824C15.7175 13.8824 15.7114 13.8824 15.7052 13.8824C15.699 13.8824 15.6929 13.8824 15.6867 13.8824C15.6805 13.8824 15.6743 13.8824 15.6682 13.8824C15.662 13.8824 15.6558 13.8824 15.6496 13.8824C15.6435 13.8824 15.6373 13.8824 15.6311 13.8824C15.6249 13.8824 15.6188 13.8824 15.6126 13.8824C15.6064 13.8824 15.6002 13.8824 15.5941 13.8824C15.5879 13.8824 15.5817 13.8824 15.5755 13.8824C15.5693 13.8824 15.5632 13.8824 15.557 13.8824C15.5508 13.8824 15.5446 13.8824 15.5385 13.8824C15.5323 13.8824 15.5261 13.8824 15.5199 13.8824C15.5137 13.8824 15.5076 13.8824 15.5014 13.8824C15.4952 13.8824 15.489 13.8824 15.4828 13.8824C15.4767 13.8824 15.4705 13.8824 15.4643 13.8824C15.4581 13.8824 15.4519 13.8824 15.4457 13.8824C15.4396 13.8824 15.4334 13.8824 15.4272 13.8824C15.421 13.8824 15.4148 13.8824 15.4086 13.8824C15.4024 13.8824 15.3963 13.8824 15.3901 13.8824C15.3839 13.8824 15.3777 13.8824 15.3715 13.8824C15.3653 13.8824 15.3591 13.8824 15.3529 13.8824C15.3468 13.8824 15.3406 13.8824 15.3344 13.8824C15.3282 13.8824 15.322 13.8824 15.3158 13.8824C15.3096 13.8824 15.3034 13.8824 15.2972 13.8824C15.291 13.8824 15.2848 13.8824 15.2786 13.8824C15.2724 13.8824 15.2663 13.8824 15.2601 13.8824C15.2539 13.8824 15.2477 13.8824 15.2415 13.8824C15.2353 13.8824 15.2291 13.8824 15.2229 13.8824C15.2167 13.8824 15.2105 13.8824 15.2043 13.8824C15.1981 13.8824 15.1919 13.8824 15.1857 13.8824C15.1795 13.8824 15.1733 13.8824 15.1671 13.8824C15.1609 13.8824 15.1546 13.8824 15.1484 13.8824C15.1422 13.8824 15.136 13.8824 15.1298 13.8824C15.1236 13.8824 15.1174 13.8824 15.1112 13.8824C15.105 13.8824 15.0988 13.8824 15.0926 13.8824C15.0864 13.8824 15.0801 13.8824 15.0739 13.8824C15.0677 13.8824 15.0615 13.8824 15.0553 13.8824C15.0491 13.8824 15.0429 13.8824 15.0366 13.8824C15.0304 13.8824 15.0242 13.8824 15.018 13.8824C15.0118 13.8824 15.0055 13.8824 14.9993 13.8824C14.9931 13.8824 14.9869 13.8824 14.9807 13.8824C14.9744 13.8824 14.9682 13.8824 14.962 13.8824C14.9558 13.8824 14.9495 13.8824 14.9433 13.8824C14.9371 13.8824 14.9309 13.8824 14.9246 13.8824C14.9184 13.8824 14.9122 13.8824 14.9059 13.8824C14.8997 13.8824 14.8935 13.8824 14.8872 13.8824C14.881 13.8824 14.8748 13.8824 14.8685 13.8824C14.8623 13.8824 14.8561 13.8824 14.8498 13.8824C14.8436 13.8824 14.8373 13.8824 14.8311 13.8824C14.8249 13.8824 14.8186 13.8824 14.8124 13.8824C14.8061 13.8824 14.7999 13.8824 14.7936 13.8824C14.7874 13.8824 14.7811 13.8824 14.7749 13.8824C14.7686 13.8824 14.7624 13.8824 14.7561 13.8824C14.7499 13.8824 14.7436 13.8824 14.7374 13.8824C14.7311 13.8824 14.7249 13.8824 14.7186 13.8824C14.7124 13.8824 14.7061 13.8824 14.6998 13.8824C14.6936 13.8824 14.6873 13.8824 14.6811 13.8824C14.6748 13.8824 14.6685 13.8824 14.6623 13.8824C14.656 13.8824 14.6497 13.8824 14.6435 13.8824C14.6372 13.8824 14.6309 13.8824 14.6247 13.8824C14.6184 13.8824 14.6121 13.8824 14.6059 13.8824C14.5996 13.8824 14.5933 13.8824 14.587 13.8824C14.5808 13.8824 14.5745 13.8824 14.5682 13.8824C14.5619 13.8824 14.5556 13.8824 14.5494 13.8824C14.5431 13.8824 14.5368 13.8824 14.5305 13.8824C14.5242 13.8824 14.5179 13.8824 14.5116 13.8824C14.5054 13.8824 14.4991 13.8824 14.4928 13.8824C14.4865 13.8824 14.4802 13.8824 14.4739 13.8824C14.4676 13.8824 14.4613 13.8824 14.455 13.8824C14.4487 13.8824 14.4424 13.8824 14.4361 13.8824C14.4298 13.8824 14.4235 13.8824 14.4172 13.8824C14.4109 13.8824 14.4046 13.8824 14.3983 13.8824C14.392 13.8824 14.3857 13.8824 14.3793 13.8824C14.373 13.8824 14.3667 13.8824 14.3604 13.8824C14.3541 13.8824 14.3478 13.8824 14.3415 13.8824C14.3351 13.8824 14.3288 13.8824 14.3225 13.8824C14.3162 13.8824 14.3098 13.8824 14.3035 13.8824C14.2972 13.8824 14.2909 13.8824 14.2845 13.8824C14.2782 13.8824 14.2719 13.8824 14.2655 13.8824C14.2592 13.8824 14.2529 13.8824 14.2465 13.8824C14.2402 13.8824 14.2339 13.8824 14.2275 13.8824C14.2212 13.8824 14.2148 13.8824 14.2085 13.8824C14.2022 13.8824 14.1958 13.8824 14.1895 13.8824C14.1831 13.8824 14.1768 13.8824 14.1704 13.8824C14.1641 13.8824 14.1577 13.8824 14.1513 13.8824C14.145 13.8824 14.1386 13.8824 14.1323 13.8824C14.1259 13.8824 14.1196 13.8824 14.1132 13.8824C14.1068 13.8824 14.1005 13.8824 14.0941 13.8824C14.0877 13.8824 14.0814 13.8824 14.075 13.8824C14.0686 13.8824 14.0622 13.8824 14.0559 13.8824C14.0495 13.8824 14.0431 13.8824 14.0367 13.8824C14.0303 13.8824 14.024 13.8824 14.0176 13.8824C14.0112 13.8824 14.0048 13.8824 13.9984 13.8824C13.992 13.8824 13.9856 13.8824 13.9792 13.8824C13.9728 13.8824 13.9665 13.8824 13.9601 13.8824C13.9537 13.8824 13.9473 13.8824 13.9409 13.8824C13.9345 13.8824 13.9281 13.8824 13.9216 13.8824C13.9152 13.8824 13.9088 13.8824 13.9024 13.8824C13.896 13.8824 13.8896 13.8824 13.8832 13.8824C13.8768 13.8824 13.8703 13.8824 13.8639 13.8824C13.8575 13.8824 13.8511 13.8824 13.8447 13.8824C13.8382 13.8824 13.8318 13.8824 13.8254 13.8824C13.819 13.8824 13.8125 13.8824 13.8061 13.8824C13.7997 13.8824 13.7932 13.8824 13.7868 13.8824C13.7803 13.8824 13.7739 13.8824 13.7675 13.8824C13.761 13.8824 13.7546 13.8824 13.7481 13.8824C13.7417 13.8824 13.7352 13.8824 13.7288 13.8824C13.7223 13.8824 13.7159 13.8824 13.7094 13.8824C13.7029 13.8824 13.6965 13.8824 13.69 13.8824C13.6836 13.8824 13.6771 13.8824 13.6706 13.8824C13.6642 13.8824 13.6577 13.8824 13.6512 13.8824C13.6447 13.8824 13.6383 13.8824 13.6318 13.8824C13.6253 13.8824 13.6188 13.8824 13.6123 13.8824C13.6059 13.8824 13.5994 13.8824 13.5929 13.8824C13.5864 13.8824 13.5799 13.8824 13.5734 13.8824C13.5669 13.8824 13.5604 13.8824 13.5539 13.8824C13.5474 13.8824 13.5409 13.8824 13.5344 13.8824C13.5279 13.8824 13.5214 13.8824 13.5149 13.8824C13.5084 13.8824 13.5019 13.8824 13.4954 13.8824C13.4889 13.8824 13.4823 13.8824 13.4758 13.8824C13.4693 13.8824 13.4628 13.8824 13.4563 13.8824C13.4497 13.8824 13.4432 13.8824 13.4367 13.8824C13.4301 13.8824 13.4236 13.8824 13.4171 13.8824C13.4105 13.8824 13.404 13.8824 13.3975 13.8824C13.3909 13.8824 13.3844 13.8824 13.3778 13.8824C13.3713 13.8824 13.3647 13.8824 13.3582 13.8824C13.3516 13.8824 13.3451 13.8824 13.3385 13.8824C13.3319 13.8824 13.3254 13.8824 13.3188 13.8824C13.3122 13.8824 13.3057 13.8824 13.2991 13.8824C13.2925 13.8824 13.286 13.8824 13.2794 13.8824C13.2728 13.8824 13.2662 13.8824 13.2597 13.8824C13.2531 13.8824 13.2465 13.8824 13.2399 13.8824C13.2333 13.8824 13.2267 13.8824 13.2201 13.8824C13.2135 13.8824 13.2069 13.8824 13.2003 13.8824C13.1937 13.8824 13.1871 13.8824 13.1805 13.8824C13.1739 13.8824 13.1673 13.8824 13.1607 13.8824C13.1541 13.8824 13.1475 13.8824 13.1409 13.8824C13.1342 13.8824 13.1276 13.8824 13.121 13.8824C13.1144 13.8824 13.1077 13.8824 13.1011 13.8824C13.0945 13.8824 13.0878 13.8824 13.0812 13.8824C13.0746 13.8824 13.0679 13.8824 13.0613 13.8824C13.0547 13.8824 13.048 13.8824 13.0414 13.8824C13.0347 13.8824 13.0281 13.8824 13.0214 13.8824C13.0147 13.8824 13.0081 13.8824 13.0014 13.8824C12.9948 13.8824 12.9881 13.8824 12.9814 13.8824C12.9748 13.8824 12.9681 13.8824 12.9614 13.8824C12.9547 13.8824 12.9481 13.8824 12.9414 13.8824C12.9347 13.8824 12.928 13.8824 12.9213 13.8824C12.9146 13.8824 12.9079 13.8824 12.9012 13.8824C12.8946 13.8824 12.8879 13.8824 12.8812 13.8824C12.8745 13.8824 12.8677 13.8824 12.861 13.8824C12.8543 13.8824 12.8476 13.8824 12.8409 13.8824C12.8342 13.8824 12.8275 13.8824 12.8208 13.8824C12.814 13.8824 12.8073 13.8824 12.8006 13.8824C12.7939 13.8824 12.7871 13.8824 12.7804 13.8824C12.7736 13.8824 12.7669 13.8824 12.7602 13.8824C12.7534 13.8824 12.7467 13.8824 12.7399 13.8824C12.7332 13.8824 12.7264 13.8824 12.7197 13.8824C12.7129 13.8824 12.7062 13.8824 12.6994 13.8824C12.6926 13.8824 12.6859 13.8824 12.6791 13.8824C12.6723 13.8824 12.6656 13.8824 12.6588 13.8824C12.652 13.8824 12.6452 13.8824 12.6384 13.8824C12.6316 13.8824 12.6249 13.8824 12.6181 13.8824C12.6113 13.8824 12.6045 13.8824 12.5977 13.8824C12.5909 13.8824 12.5841 13.8824 12.5773 13.8824C12.5705 13.8824 12.5637 13.8824 12.5568 13.8824C12.55 13.8824 12.5432 13.8824 12.5364 13.8824C12.5296 13.8824 12.5227 13.8824 12.5159 13.8824C12.5091 13.8824 12.5023 13.8824 12.4954 13.8824C12.4886 13.8824 12.4818 13.8824 12.4749 13.8824C12.4681 13.8824 12.4612 13.8824 12.4544 13.8824C12.4475 13.8824 12.4407 13.8824 12.4338 13.8824C12.4269 13.8824 12.4201 13.8824 12.4132 13.8824C12.4064 13.8824 12.3995 13.8824 12.3926 13.8824C12.3857 13.8824 12.3789 13.8824 12.372 13.8824C12.3651 13.8824 12.3582 13.8824 12.3513 13.8824C12.3444 13.8824 12.3375 13.8824 12.3306 13.8824C12.3237 13.8824 12.3168 13.8824 12.3099 13.8824C12.303 13.8824 12.2961 13.8824 12.2892 13.8824C12.2823 13.8824 12.2754 13.8824 12.2685 13.8824C12.2615 13.8824 12.2546 13.8824 12.2477 13.8824C12.2408 13.8824 12.2338 13.8824 12.2269 13.8824C12.22 13.8824 12.213 13.8824 12.2061 13.8824C12.1991 13.8824 12.1922 13.8824 12.1852 13.8824C12.1783 13.8824 12.1713 13.8824 12.1644 13.8824C12.1574 13.8824 12.1504 13.8824 12.1435 13.8824C12.1365 13.8824 12.1295 13.8824 12.1225 13.8824C12.1156 13.8824 12.1086 13.8824 12.1016 13.8824C12.0946 13.8824 12.0876 13.8824 12.0806 13.8824C12.0736 13.8824 12.0666 13.8824 12.0596 13.8824C12.0526 13.8824 12.0456 13.8824 12.0386 13.8824C12.0316 13.8824 12.0246 13.8824 12.0176 13.8824C12.0106 13.8824 12.0035 13.8824 11.9965 13.8824C11.9895 13.8824 11.9824 13.8824 11.9754 13.8824C11.9684 13.8824 11.9613 13.8824 11.9543 13.8824C11.9473 13.8824 11.9402 13.8824 11.9331 13.8824C11.9261 13.8824 11.919 13.8824 11.912 13.8824C11.9049 13.8824 11.8979 13.8824 11.8908 13.8824C11.8837 13.8824 11.8766 13.8824 11.8696 13.8824C11.8625 13.8824 11.8554 13.8824 11.8483 13.8824C11.8412 13.8824 11.8341 13.8824 11.827 13.8824C11.8199 13.8824 11.8128 13.8824 11.8057 13.8824C11.7986 13.8824 11.7915 13.8824 11.7844 13.8824C11.7773 13.8824 11.7702 13.8824 11.763 13.8824C11.7559 13.8824 11.7488 13.8824 11.7417 13.8824C11.7345 13.8824 11.7274 13.8824 11.7203 13.8824C11.7131 13.8824 11.706 13.8824 11.6988 13.8824C11.6917 13.8824 11.6845 13.8824 11.6774 13.8824C11.6702 13.8824 11.663 13.8824 11.6559 13.8824C11.6487 13.8824 11.6415 13.8824 11.6343 13.8824C11.6272 13.8824 11.62 13.8824 11.6128 13.8824C11.6056 13.8824 11.5984 13.8824 11.5912 13.8824C11.584 13.8824 11.5768 13.8824 11.5696 13.8824C11.5624 13.8824 11.5552 13.8824 11.548 13.8824C11.5408 13.8824 11.5336 13.8824 11.5263 13.8824C11.5191 13.8824 11.5119 13.8824 11.5046 13.8824C11.4974 13.8824 11.4902 13.8824 11.4829 13.8824C11.4757 13.8824 11.4684 13.8824 11.4612 13.8824C11.4539 13.8824 11.4467 13.8824 11.4394 13.8824C11.4322 13.8824 11.4249 13.8824 11.4176 13.8824C11.4103 13.8824 11.4031 13.8824 11.3958 13.8824C11.3885 13.8824 11.3812 13.8824 11.3739 13.8824C11.3666 13.8824 11.3593 13.8824 11.352 13.8824C11.3447 13.8824 11.3374 13.8824 11.3301 13.8824C11.3228 13.8824 11.3155 13.8824 11.3082 13.8824C11.3009 13.8824 11.2935 13.8824 11.2862 13.8824C11.2789 13.8824 11.2715 13.8824 11.2642 13.8824C11.2569 13.8824 11.2495 13.8824 11.2422 13.8824C11.2348 13.8824 11.2275 13.8824 11.2201 13.8824C11.2127 13.8824 11.2054 13.8824 11.198 13.8824C11.1906 13.8824 11.1833 13.8824 11.1759 13.8824C11.1685 13.8824 11.1611 13.8824 11.1537 13.8824C11.1463 13.8824 11.1389 13.8824 11.1315 13.8824C11.1241 13.8824 11.1167 13.8824 11.1093 13.8824C11.1019 13.8824 11.0945 13.8824 11.0871 13.8824C11.0797 13.8824 11.0722 13.8824 11.0648 13.8824C11.0574 13.8824 11.0499 13.8824 11.0425 13.8824C11.0351 13.8824 11.0276 13.8824 11.0202 13.8824C11.0127 13.8824 11.0053 13.8824 10.9978 13.8824C10.9903 13.8824 10.9829 13.8824 10.9754 13.8824C10.9679 13.8824 10.9604 13.8824 10.953 13.8824C10.9455 13.8824 10.938 13.8824 10.9305 13.8824C10.923 13.8824 10.9155 13.8824 10.908 13.8824C10.9005 13.8824 10.893 13.8824 10.8855 13.8824C10.878 13.8824 10.8704 13.8824 10.8629 13.8824C10.8554 13.8824 10.8479 13.8824 10.8403 13.8824C10.8328 13.8824 10.8252 13.8824 10.8177 13.8824L10.8177 15.5824Z" fill="#2170FF"/>
</svg>
