<svg viewBox="0 0 200 53" fill="none" xmlns="http://www.w3.org/2000/svg">
    <path d="M27.6051 26.0089L14.4424 34.2512V50.7357L27.6051 42.4935V26.0089Z" fill="#FFF200"/>
    <path d="M14.4425 17.7667L1.27979 26.0089V9.52438L14.4425 1.2821V17.7667Z" fill="#21DFF3"/>
    <path d="M27.6052 26.009L14.4425 34.2513L1.27979 26.009L14.4425 17.7667L27.6052 26.009Z" fill="#FF0078"/>
    <path d="M1.27979 26.009L14.4425 17.7667" stroke="#0A0A0A" stroke-width="0.727273" stroke-miterlimit="10"/>
    <path d="M14.4424 34.2512L27.6051 26.0089" stroke="#0A0A0A" stroke-width="0.727273" stroke-miterlimit="10"/>
    <path d="M1.27979 42.4935L14.4425 34.2512V50.7358L1.27979 42.4935Z" fill="#A42EFF"/>
    <path d="M25.8867 24.9319L15.3017 18.3052C14.7679 17.97 14.4425 17.3839 14.4425 16.7519V1.2821L1.27979 9.52438V23.9795C1.27979 25.2433 1.92878 26.4174 2.99825 27.0859L13.5833 33.7146C14.1171 34.0497 14.4425 34.6359 14.4425 35.2678V50.7376L27.6052 42.4953V28.0402C27.6052 26.7764 26.9562 25.6023 25.8867 24.9319Z" stroke="#0A0A0A" stroke-width="2.27273" stroke-miterlimit="10" stroke-linecap="round" stroke-linejoin="round"/>
    <path d="M14.4425 50.7358L1.27979 42.4935L13.6198 34.7091" stroke="#0A0A0A" stroke-width="2.27273" stroke-miterlimit="10" stroke-linecap="round" stroke-linejoin="round"/>
    <path d="M54.3036 25.4594C54.5028 25.2781 54.6783 25.0784 54.8337 24.8586C55.0257 24.5839 55.1573 24.2798 55.2396 23.9538C55.3292 23.604 55.373 23.2395 55.373 22.8732C55.373 22.2797 55.2761 21.7339 55.086 21.2503C54.8922 20.7631 54.607 20.3272 54.2396 19.959C53.7716 19.4902 53.2103 19.1348 52.5741 18.9004C51.9507 18.6714 51.2871 18.5542 50.6016 18.5542H43.0787C42.8118 18.5542 42.5942 18.7722 42.5942 19.0396V33.6247C42.5942 33.8922 42.8118 34.1101 43.0787 34.1101H50.8922C51.6454 34.1101 52.3529 33.9801 52.9983 33.7237C53.6399 33.4691 54.2176 33.1046 54.7112 32.6448C55.1774 32.2126 55.5467 31.6924 55.8081 31.0989C56.0677 30.5055 56.1994 29.8516 56.1994 29.1574C56.1994 28.1372 55.9251 27.2342 55.3767 26.4631C55.0732 26.062 54.7131 25.725 54.3036 25.4594ZM50.9233 30.9085H46.1317V27.4101H51.0458C51.3017 27.4101 51.5431 27.4632 51.7825 27.5749C52.0275 27.6885 52.2304 27.8332 52.3877 28.0035C52.6217 28.2746 52.735 28.6446 52.735 29.1355C52.735 29.3864 52.6948 29.6245 52.618 29.8406C52.5431 30.0458 52.4443 30.2088 52.3273 30.3278C52.1409 30.5018 51.9215 30.6447 51.6728 30.7528C51.4279 30.8572 51.1847 30.9085 50.9233 30.9085ZM51.5888 23.8531C51.4973 23.9575 51.3858 24.0417 51.2505 24.1132C51.1317 24.1754 51.0001 24.2047 50.8484 24.2047H46.1317V21.7559H50.4626C50.9288 21.7559 51.2853 21.8749 51.554 22.1222C51.7771 22.3237 51.8849 22.6076 51.8849 22.9922C51.8831 23.3366 51.7844 23.6205 51.5888 23.8531Z" fill="#0A0A0A"/>
    <path d="M62.6419 18.5542H60.0733C59.8046 18.5542 59.5889 18.7722 59.5889 19.0396V33.6247C59.5889 33.8922 59.8064 34.1101 60.0733 34.1101H71.0569C71.3256 34.1101 71.5413 33.8922 71.5413 33.6247V31.3206C71.5413 31.0532 71.3238 30.8352 71.0569 30.8352H63.1263V19.0414C63.1263 18.7722 62.9088 18.5542 62.6419 18.5542Z" fill="#0A0A0A"/>
    <path d="M86.5908 20.4151C85.8686 19.6916 85.0021 19.1238 84.0131 18.7264C83.0295 18.3326 81.9272 18.1329 80.7389 18.1329C79.5122 18.1329 78.3732 18.3546 77.3568 18.7923C76.3367 19.2301 75.4537 19.8455 74.7334 20.6184C74.046 21.3401 73.5067 22.1863 73.1301 23.1314C72.7535 24.0765 72.5615 25.1022 72.5615 26.1811C72.5615 27.2123 72.7571 28.2142 73.1429 29.1611C73.5286 30.1044 74.0533 30.9378 74.7059 31.6411C75.4262 32.4141 76.3111 33.0441 77.333 33.5149C78.3623 33.9874 79.5085 34.2274 80.7389 34.2274C81.9619 34.2274 83.0862 34.0149 84.0825 33.5936C85.0752 33.1723 85.9527 32.5752 86.6913 31.8206C87.397 31.0971 87.9454 30.2454 88.3239 29.2893C88.7005 28.3369 88.8924 27.291 88.8924 26.1811C88.8924 25.0693 88.6931 24.0106 88.2983 23.0325C87.9034 22.0526 87.3312 21.1734 86.5908 20.4151ZM85.3549 26.1792C85.3549 26.8624 85.2434 27.4943 85.0222 28.053C84.801 28.6135 84.4975 29.1043 84.1191 29.5128C83.695 29.967 83.1867 30.3242 82.6091 30.5715C81.439 31.0751 79.9893 31.0678 78.8485 30.5605C78.2727 30.3059 77.7736 29.9469 77.3604 29.489C76.9802 29.0787 76.6712 28.586 76.4409 28.0237C76.2142 27.4669 76.099 26.8459 76.099 26.1774C76.099 25.4942 76.2142 24.8641 76.4409 24.3073C76.6694 23.745 76.9802 23.2505 77.3586 22.842C77.7827 22.3878 78.2891 22.0324 78.8668 21.7833C79.4463 21.5342 80.0752 21.4079 80.737 21.4079C81.3824 21.4079 82.0039 21.5342 82.5835 21.7833C83.163 22.0343 83.673 22.3841 84.0972 22.8237C84.4756 23.2175 84.7827 23.7029 85.0094 24.2689C85.2398 24.8385 85.3549 25.4814 85.3549 26.1792Z" fill="#0A0A0A"/>
    <path d="M95.7569 22.8896C96.181 22.4628 96.6765 22.1331 97.2322 21.906C98.468 21.3987 100.042 21.4756 101.199 21.9738C101.697 22.1881 102.751 22.994 103.214 23.3567C103.344 23.4574 103.525 23.4391 103.634 23.3164L105.397 21.3309C105.516 21.1972 105.501 20.9939 105.36 20.8821C104.757 20.4059 103.232 19.2319 102.466 18.9077C101.488 18.4955 100.34 18.2867 99.0494 18.2867C97.8611 18.2867 96.7532 18.4919 95.7606 18.893C94.766 19.2978 93.8958 19.8693 93.1701 20.5964C92.4498 21.3364 91.8812 22.1972 91.4808 23.1552C91.0768 24.1186 90.8721 25.1791 90.8721 26.3092C90.8721 27.4558 91.0768 28.5291 91.479 29.4981C91.8812 30.4707 92.4699 31.3388 93.2249 32.077C93.9616 32.7986 94.83 33.3683 95.8063 33.7712C96.7825 34.1742 97.8739 34.3793 99.0476 34.3793C100.333 34.3793 101.481 34.1779 102.459 33.7786C103.234 33.4617 104.762 32.24 105.358 31.751C105.495 31.6392 105.508 31.4378 105.389 31.304L103.633 29.3497C103.525 29.2288 103.346 29.2105 103.216 29.3094C102.753 29.6648 101.695 30.4597 101.194 30.6795C100.038 31.1905 98.4863 31.2802 97.203 30.7271C96.6216 30.4762 96.1134 30.1245 95.6819 29.6776C95.3053 29.3003 94.9964 28.8222 94.7624 28.2544C94.5284 27.6884 94.4095 27.0382 94.4095 26.3202C94.4095 25.637 94.532 24.9905 94.7752 24.3989C95.0183 23.8072 95.3492 23.2999 95.7569 22.8896Z" fill="#0A0A0A"/>
    <path d="M122.454 18.5542H119.079C118.85 18.5542 118.636 18.6659 118.503 18.8509L114.726 24.1828H112.419V19.0396C112.419 18.7722 112.201 18.5542 111.934 18.5542H109.366C109.099 18.5542 108.881 18.7722 108.881 19.0396V33.6247C108.881 33.8922 109.099 34.1101 109.366 34.1101H111.934C112.201 34.1101 112.419 33.8922 112.419 33.6247V27.4577H114.764L118.907 33.7896C119.037 33.9892 119.26 34.1083 119.497 34.1083H122.795C122.98 34.1083 123.092 33.9031 122.991 33.7475L117.773 25.7323L122.644 18.9205C122.753 18.7703 122.644 18.5542 122.454 18.5542Z" fill="#0A0A0A"/>
    <path d="M129.327 22.8896C129.751 22.4628 130.249 22.1313 130.803 21.906C132.038 21.4005 133.612 21.4756 134.77 21.9738C135.267 22.1881 136.322 22.994 136.784 23.3567C136.914 23.4574 137.095 23.4391 137.205 23.3164L138.967 21.3309C139.086 21.1972 139.071 20.9939 138.93 20.8821C138.327 20.4059 136.803 19.23 136.037 18.9077C135.058 18.4955 133.91 18.2867 132.62 18.2867C131.431 18.2867 130.324 18.4919 129.331 18.893C128.336 19.2978 127.466 19.8693 126.74 20.5964C126.02 21.3346 125.452 22.1954 125.051 23.1552C124.647 24.1186 124.442 25.181 124.442 26.3092C124.442 27.454 124.647 28.5273 125.049 29.4981C125.453 30.4707 126.04 31.3388 126.795 32.077C127.532 32.7986 128.399 33.3683 129.375 33.7712C130.353 34.1742 131.444 34.3793 132.618 34.3793C133.903 34.3793 135.051 34.1779 136.029 33.7786C136.804 33.4617 138.333 32.24 138.93 31.751C139.068 31.6392 139.08 31.4378 138.962 31.304L137.205 29.3497C137.097 29.2288 136.916 29.2105 136.788 29.3094C136.325 29.6648 135.265 30.4597 134.766 30.6795C133.609 31.1905 132.057 31.2784 130.775 30.7271C130.196 30.4762 129.686 30.1245 129.254 29.6776C128.879 29.3021 128.569 28.8222 128.335 28.2544C128.101 27.6866 127.982 27.0364 127.982 26.3202C127.982 25.6352 128.104 24.9886 128.347 24.3989C128.59 23.8072 128.92 23.2999 129.327 22.8896Z" fill="#0A0A0A"/>
    <path d="M152.477 24.029H145.751V18.8858C145.751 18.6184 145.534 18.4004 145.267 18.4004H142.698C142.431 18.4004 142.214 18.6184 142.214 18.8858V33.4709C142.214 33.7384 142.431 33.9563 142.698 33.9563H145.267C145.534 33.9563 145.751 33.7384 145.751 33.4709V27.3039H152.477V33.4709C152.477 33.7384 152.695 33.9563 152.962 33.9563H155.528C155.797 33.9563 156.013 33.7384 156.013 33.4709V18.8858C156.013 18.6184 155.795 18.4004 155.528 18.4004H152.962C152.695 18.4004 152.477 18.6184 152.477 18.8858V24.029V24.029Z" fill="#0A0A0A"/>
    <path d="M165.265 18.9755L158.713 33.7841C158.645 33.938 158.757 34.112 158.927 34.112H161.881C162.159 34.112 162.411 33.949 162.525 33.6925L163.53 31.4305H170.707L171.737 33.698C171.852 33.9508 172.102 34.112 172.378 34.112H175.382C175.55 34.112 175.664 33.938 175.596 33.7841L169.044 18.9755C168.93 18.7209 168.678 18.556 168.398 18.556H165.91C165.631 18.5542 165.378 18.7191 165.265 18.9755ZM169.342 28.1537H164.909L167.095 22.5764L169.342 28.1537Z" fill="#0A0A0A"/>
    <path d="M178.786 34.112H181.305C181.574 34.112 181.79 33.894 181.79 33.6266V19.0414C181.79 18.774 181.572 18.556 181.305 18.556H178.786C178.519 18.556 178.302 18.774 178.302 19.0414V33.6266C178.302 33.894 178.519 34.112 178.786 34.112Z" fill="#0A0A0A"/>
    <path d="M197.165 29.3314C197.433 29.1867 197.682 29.0219 197.907 28.8424C198.258 28.5603 198.578 28.2398 198.859 27.8881C199.616 26.9137 200 25.736 200 24.3842C200 23.5435 199.843 22.7651 199.534 22.0727C199.227 21.3895 198.806 20.776 198.276 20.2466C197.715 19.7026 197.062 19.2795 196.337 18.9901C195.613 18.7026 194.83 18.556 194.011 18.556H186.83C186.561 18.556 186.346 18.774 186.346 19.0414V33.6266C186.346 33.894 186.563 34.112 186.83 34.112H189.397C189.664 34.112 189.881 33.894 189.881 33.6266V30.141H193.635L195.795 33.7694C195.923 33.9837 196.152 34.1138 196.401 34.1138H199.766C199.898 34.1138 199.978 33.9691 199.911 33.8555L197.165 29.3314ZM189.883 21.8804H193.945C194.333 21.8804 194.702 21.9573 195.039 22.1075C195.371 22.2577 195.631 22.4537 195.856 22.7358C196.265 23.1717 196.463 23.7139 196.463 24.3971C196.463 24.7158 196.406 25.0326 196.296 25.3367C196.187 25.6389 196.026 25.899 195.788 26.1536C195.607 26.3734 195.371 26.5419 195.073 26.6701C194.766 26.8001 194.428 26.8642 194.068 26.8642H189.883V21.8804V21.8804Z" fill="#0A0A0A"/>
</svg>
